<?xml version="1.0" standalone="no"?>
<!DOCTYPE svg PUBLIC "-//W3C//DTD SVG 20010904//EN"
 "http://www.w3.org/TR/2001/REC-SVG-20010904/DTD/svg10.dtd">
<svg version="1.0" xmlns="http://www.w3.org/2000/svg"
 width="1936.000000pt" height="1936.000000pt" viewBox="0 0 1936.000000 1936.000000"
 preserveAspectRatio="xMidYMid meet">
<metadata>
Created by potrace 1.16, written by Peter Selinger 2001-2019
</metadata>
<g transform="translate(0.000000,1936.000000) scale(0.100000,-0.100000)"
fill="#000000" stroke="none">
<path d="M9330 18248 c-107 -9 -169 -18 -215 -29 -95 -25 -164 -36 -172 -28
-5 5 -60 -4 -123 -19 -63 -16 -171 -39 -240 -51 -69 -13 -154 -32 -189 -42
-63 -20 -177 -72 -196 -90 -5 -5 -18 -9 -30 -9 -11 0 -30 -7 -41 -15 -23 -15
-96 -44 -129 -50 -61 -11 -224 -86 -297 -137 -14 -10 -30 -18 -35 -18 -5 0
-28 -16 -51 -36 -35 -29 -50 -35 -91 -36 -32 -1 -52 -6 -55 -15 -3 -7 -15 -13
-26 -13 -12 0 -35 -8 -53 -17 -18 -9 -54 -16 -82 -16 -59 1 -71 -7 -192 -129
-47 -49 -92 -88 -98 -88 -16 0 -108 -50 -174 -94 -29 -20 -64 -39 -76 -42 -13
-3 -25 -14 -28 -23 -2 -10 -19 -25 -36 -34 -28 -14 -33 -14 -38 -1 -4 11 -14
4 -41 -26 -24 -29 -37 -38 -42 -29 -5 7 -16 9 -26 5 -16 -6 -16 -9 -4 -17 11
-8 12 -12 3 -16 -7 -2 -13 -11 -13 -19 0 -8 -5 -14 -11 -14 -6 0 -8 7 -5 16
10 27 -22 -3 -37 -35 -7 -14 -25 -32 -41 -40 -16 -7 -31 -22 -34 -33 -2 -10
-17 -25 -33 -33 -15 -8 -30 -23 -33 -32 -3 -10 -23 -29 -43 -43 -21 -13 -63
-46 -94 -72 -31 -26 -58 -45 -61 -43 -2 3 -14 -35 -25 -83 -28 -118 -25 -188
15 -285 18 -43 32 -88 32 -100 0 -12 11 -39 25 -59 14 -20 25 -46 25 -57 0
-32 39 -98 61 -104 10 -3 26 -21 34 -41 19 -46 39 -48 29 -4 l-7 33 28 -33
c15 -18 25 -39 21 -47 -4 -11 9 -25 41 -45 26 -17 43 -30 39 -30 -5 0 -3 -7 4
-15 10 -12 10 -15 -4 -15 -9 0 -16 -5 -16 -10 0 -6 -11 -8 -25 -4 -15 4 -25 2
-25 -5 0 -6 5 -11 10 -11 6 0 10 -11 10 -25 0 -31 14 -32 34 -3 9 12 17 20 20
17 7 -7 -13 -49 -24 -49 -5 0 -10 -9 -10 -19 0 -21 -39 -73 -40 -53 0 7 -5 10
-11 6 -8 -4 -7 -9 2 -14 22 -14 -45 -131 -119 -207 -79 -80 -160 -196 -203
-288 -17 -36 -34 -65 -38 -65 -4 0 -13 -28 -20 -62 -7 -35 -16 -67 -21 -73 -4
-5 -24 -63 -44 -127 -30 -97 -38 -137 -41 -228 -3 -62 -7 -115 -10 -120 -3 -4
2 -24 10 -44 8 -19 15 -51 15 -70 0 -19 4 -37 9 -41 11 -6 25 31 16 44 -3 5
-1 12 3 15 5 3 4 32 -1 65 -10 63 -1 191 13 191 5 0 10 -28 12 -62 2 -41 7
-62 14 -61 20 4 26 -61 8 -95 -8 -17 -19 -34 -25 -37 -5 -4 -9 -16 -9 -28 1
-18 5 -16 23 15 25 43 42 50 33 13 -4 -14 -3 -25 2 -25 5 0 17 -27 27 -60 18
-60 45 -97 63 -86 15 9 34 -20 30 -46 -2 -18 1 -23 18 -21 18 2 23 -4 27 -35
6 -48 -7 -62 -31 -32 -10 12 -24 21 -31 19 -8 -3 4 -17 28 -33 24 -17 41 -37
41 -48 0 -13 -5 -18 -14 -15 -10 4 -12 0 -9 -14 3 -11 9 -22 14 -25 5 -3 6
-16 3 -30 -4 -17 -2 -24 8 -24 8 0 25 -10 38 -22 l23 -21 -22 -9 c-13 -4 -28
-5 -34 -2 -7 3 1 -5 17 -18 17 -13 44 -25 60 -28 37 -6 41 -32 7 -40 -31 -7
-40 -30 -12 -30 28 0 27 -28 -1 -33 -20 -3 -19 -5 10 -12 37 -9 41 -20 12 -35
-11 -6 -20 -17 -20 -26 0 -10 -7 -13 -25 -8 -14 3 -25 2 -25 -4 0 -16 26 -33
43 -26 17 6 56 -31 62 -61 2 -11 6 -48 9 -83 2 -38 11 -71 20 -81 18 -20 21
-41 5 -41 -38 0 -95 -143 -69 -175 13 -16 13 -269 0 -395 -15 -151 -13 -246 9
-405 11 -77 23 -180 26 -230 7 -110 21 -196 47 -295 25 -94 87 -282 98 -295 4
-5 14 -30 21 -55 24 -86 100 -168 186 -200 50 -19 69 -21 137 -15 78 7 79 7
73 -15 -4 -14 1 -29 13 -42 10 -11 20 -38 23 -61 6 -46 16 -94 24 -117 3 -8 7
-31 8 -50 1 -19 4 -42 7 -50 11 -28 31 -160 26 -166 -3 -3 1 -26 8 -51 8 -25
14 -62 14 -82 0 -48 48 -295 76 -391 13 -47 62 -246 71 -290 4 -21 62 -149
109 -240 7 -14 28 -54 46 -90 17 -36 38 -71 44 -77 31 -32 82 -132 88 -173 4
-25 16 -92 26 -150 44 -241 61 -390 65 -582 l5 -197 -40 -20 c-23 -11 -58 -34
-78 -51 -20 -17 -89 -65 -152 -106 -63 -42 -116 -79 -118 -83 -3 -8 -113 -155
-121 -161 -8 -7 -59 -82 -80 -118 -41 -73 -59 -93 -106 -119 -27 -15 -74 -42
-103 -61 -52 -32 -60 -34 -210 -48 -91 -8 -170 -20 -187 -28 -41 -20 -121 -40
-305 -77 -85 -17 -171 -35 -190 -41 -19 -6 -64 -14 -100 -19 -36 -4 -119 -17
-185 -29 -66 -12 -156 -25 -200 -30 -421 -44 -593 -74 -1020 -175 -266 -64
-455 -103 -594 -125 -207 -33 -334 -69 -556 -157 -55 -22 -115 -44 -134 -48
-19 -4 -72 -23 -117 -42 -99 -41 -157 -97 -176 -169 -10 -36 -30 -65 -85 -123
-40 -42 -73 -79 -73 -82 0 -3 -12 -16 -26 -30 -37 -34 -168 -197 -246 -307
-72 -99 -119 -162 -185 -247 -23 -29 -59 -77 -80 -106 -42 -60 -151 -198 -168
-214 -6 -5 -19 -23 -29 -38 -9 -15 -38 -52 -64 -80 -98 -109 -221 -264 -297
-371 -65 -93 -115 -159 -143 -191 -55 -61 -91 -112 -85 -119 3 -3 2 -6 -4 -6
-6 0 -14 -7 -17 -16 -5 -13 -2 -15 15 -11 15 4 23 0 26 -14 3 -10 9 -19 14
-19 5 0 9 -7 9 -15 0 -8 5 -15 10 -15 6 0 10 -4 10 -9 0 -10 63 -119 80 -139
6 -7 8 -21 5 -32 -4 -13 -2 -20 8 -20 7 0 20 -11 27 -25 7 -14 17 -25 22 -25
4 0 8 -7 8 -15 0 -8 5 -15 10 -15 6 0 10 -7 10 -15 0 -8 5 -15 10 -15 6 0 10
-7 10 -15 0 -8 5 -15 10 -15 6 0 10 -5 10 -11 0 -7 16 -34 35 -60 19 -27 35
-54 35 -59 0 -6 5 -10 10 -10 6 0 10 -7 10 -15 0 -8 5 -15 10 -15 6 0 10 -7
10 -15 0 -8 5 -15 10 -15 6 0 10 -7 10 -15 0 -8 5 -15 10 -15 6 0 10 -7 10
-15 0 -8 4 -15 8 -15 4 0 21 -22 37 -50 17 -27 33 -50 38 -50 4 0 7 -7 7 -15
0 -8 5 -15 10 -15 6 0 10 -4 10 -10 0 -9 16 -31 45 -64 6 -6 22 -27 35 -46 13
-19 30 -41 37 -48 7 -7 13 -17 13 -21 0 -4 8 -16 18 -27 10 -10 28 -35 42 -54
13 -19 29 -38 35 -42 7 -5 6 -8 -2 -8 -8 0 -7 -9 4 -31 8 -17 21 -28 28 -25
14 5 47 -28 86 -84 13 -19 33 -45 44 -56 31 -33 55 -64 55 -70 0 -4 15 -20 34
-38 18 -17 37 -41 40 -53 4 -13 12 -23 17 -23 12 0 14 -2 94 -95 33 -38 78
-88 100 -111 145 -150 230 -249 228 -266 -2 -13 4 -18 23 -18 17 0 28 -7 31
-20 3 -11 9 -20 14 -20 6 0 25 -15 43 -33 135 -132 178 -168 189 -159 7 6 27
7 47 3 34 -7 35 -8 32 -50 -3 -37 1 -47 30 -75 20 -19 32 -40 30 -51 -3 -14 1
-17 16 -13 13 4 32 -5 53 -23 19 -16 37 -28 40 -26 4 1 49 42 100 91 51 49
103 93 115 98 13 6 39 7 59 4 34 -7 36 -9 30 -34 -4 -15 -11 -43 -16 -62 -9
-39 -43 -156 -51 -180 -32 -90 -33 -98 -2 -128 17 -15 51 -43 76 -60 53 -37
51 -40 67 68 6 36 17 90 25 120 8 30 19 89 25 130 14 100 24 131 44 144 30 19
36 -5 21 -94 -8 -47 -16 -105 -19 -130 -9 -66 -14 -94 -42 -210 -17 -71 -22
-105 -14 -108 7 -2 8 -14 5 -29 -6 -23 -5 -25 16 -20 29 8 82 -27 73 -48 -3
-9 1 -15 9 -15 14 0 38 115 58 275 5 44 14 109 20 145 5 36 15 102 21 148 9
62 16 85 30 92 37 20 42 13 35 -52 -3 -35 -9 -98 -12 -140 l-7 -78 109 0 c60
0 114 4 121 8 6 4 14 48 18 100 13 163 25 109 21 -95 -2 -109 -5 -243 -5 -298
-1 -93 -11 -138 -26 -123 -4 4 -6 77 -6 162 l2 156 -120 -1 c-83 -1 -123 -5
-131 -14 -5 -7 -17 -61 -25 -121 -8 -60 -19 -125 -25 -143 -8 -27 -6 -40 5
-58 9 -13 21 -23 28 -23 6 0 24 -10 39 -23 60 -50 67 -56 90 -68 13 -6 25 -15
28 -18 3 -4 26 -20 52 -36 27 -17 48 -33 48 -37 0 -5 7 -8 15 -8 8 0 15 -4 15
-8 0 -5 12 -15 28 -23 15 -8 36 -22 46 -31 11 -10 23 -18 28 -18 4 0 30 -16
57 -35 26 -19 51 -35 55 -35 4 0 16 -9 28 -20 12 -11 28 -20 35 -20 7 0 13 -4
13 -10 0 -5 7 -10 15 -10 8 0 15 -4 15 -10 0 -5 4 -10 9 -10 18 0 214 -124
203 -128 -17 -5 -15 -32 3 -32 8 0 15 7 15 15 0 8 5 15 10 15 6 0 10 -4 10 -9
0 -5 42 -30 92 -56 51 -26 104 -55 118 -65 14 -9 39 -23 56 -30 24 -11 30 -18
26 -37 -3 -16 0 -23 12 -23 9 0 16 7 16 15 0 15 20 22 20 8 0 -5 38 -26 84
-48 82 -38 84 -41 79 -69 -5 -22 -3 -28 8 -24 8 3 13 13 13 22 -1 9 1 16 5 16
14 0 61 -25 61 -32 0 -5 9 -8 20 -8 14 0 20 -7 20 -23 0 -25 17 -47 37 -47 7
0 13 7 13 15 0 17 25 20 35 5 3 -5 15 -10 26 -10 10 0 19 -4 19 -10 0 -5 6
-10 12 -10 12 0 55 -19 161 -71 22 -11 45 -19 53 -19 8 0 14 -4 14 -10 0 -5 6
-10 13 -10 24 0 67 -25 67 -38 0 -10 8 -12 30 -7 19 4 30 3 30 -4 0 -6 9 -11
19 -11 20 0 36 -16 36 -35 0 -5 7 -10 15 -10 8 0 14 6 12 13 -1 8 1 12 5 10
26 -12 100 -44 141 -59 65 -26 125 -50 144 -60 10 -5 26 -9 36 -9 10 0 23 -5
30 -12 15 -15 22 -8 62 64 42 79 132 207 167 240 96 90 137 119 273 191 58 30
125 67 150 81 149 83 296 140 440 170 265 55 431 78 585 81 192 3 492 -10 572
-25 61 -12 63 -13 69 -49 9 -56 17 -70 22 -38 2 16 -2 35 -9 43 -21 26 2 34
71 24 100 -15 283 -13 278 3 -6 17 -67 36 -152 46 -153 19 -303 42 -346 51
-56 13 -424 40 -465 34 -16 -2 -77 -4 -135 -4 -132 -1 -334 -16 -468 -35 -161
-23 -381 -113 -486 -199 -45 -38 -92 -60 -107 -50 -37 22 91 175 312 375 121
110 310 224 434 262 28 9 88 29 135 45 85 29 204 66 315 97 33 10 87 25 120
35 262 79 328 86 667 71 309 -13 408 -22 520 -46 40 -9 107 -23 148 -32 402
-82 648 -166 824 -280 114 -73 319 -246 403 -340 43 -47 116 -127 162 -177 74
-80 154 -189 205 -281 9 -16 30 -52 47 -79 108 -175 218 -436 259 -614 7 -30
19 -56 28 -59 8 -4 37 -2 63 4 34 6 52 6 59 -1 8 -8 15 -6 24 7 8 11 27 17 49
17 20 0 39 5 42 10 10 16 65 12 65 -5 0 -8 7 -15 15 -15 9 0 15 9 15 25 0 23
4 25 40 25 22 0 40 5 40 10 0 6 18 10 39 10 22 0 43 4 46 10 3 5 21 10 40 10
19 0 37 4 40 10 3 5 19 10 35 10 16 0 32 5 35 10 3 6 17 10 30 10 13 0 34 4
47 9 13 5 70 21 128 36 58 14 113 31 122 36 10 5 29 9 43 9 14 0 25 5 25 10 0
6 13 10 29 10 17 0 33 5 36 10 3 6 17 10 30 10 13 0 27 5 30 10 3 6 17 10 31
10 13 0 24 5 24 10 0 6 8 10 18 10 20 1 179 54 189 64 12 12 43 6 43 -9 0 -8
6 -15 13 -15 21 0 27 11 16 31 -8 16 -6 19 11 19 11 0 29 5 40 10 11 6 29 15
40 20 11 6 28 10 38 10 10 0 23 5 29 11 7 7 9 0 6 -25 -2 -26 0 -36 10 -36 21
0 28 12 16 26 -6 8 -7 14 0 18 6 4 8 13 5 21 -4 9 1 17 12 21 22 7 35 12 122
48 35 14 70 26 78 26 8 0 14 5 14 10 0 6 11 10 25 10 14 0 25 5 25 10 0 6 11
10 25 10 14 0 25 5 25 10 0 6 9 10 20 10 11 0 20 5 20 10 0 6 6 10 14 10 8 0
31 9 53 19 21 11 56 27 78 36 75 33 170 77 195 91 14 7 81 42 150 76 69 34
127 65 130 69 3 4 20 10 37 14 18 3 36 12 40 18 5 7 22 19 38 27 17 8 32 17
35 20 5 5 63 37 150 82 25 13 46 26 48 31 2 4 10 7 18 7 8 0 14 3 14 8 0 4 12
12 26 19 20 9 30 9 45 0 26 -16 48 5 29 27 -10 13 -9 17 11 25 13 4 30 6 37 3
7 -2 15 4 18 16 3 11 23 28 45 38 21 11 39 22 39 27 0 4 7 7 15 7 8 0 15 5 15
10 0 6 9 10 20 10 11 0 25 9 32 20 7 11 17 20 22 20 5 0 31 16 58 36 46 32 51
34 62 18 7 -9 18 -14 24 -10 18 11 14 26 -5 26 -15 0 -14 2 3 17 10 10 31 24
47 32 15 8 27 18 27 23 0 4 7 8 15 8 8 0 15 4 15 8 0 5 12 15 28 23 29 15 33
18 71 49 13 11 27 20 31 20 4 0 16 8 28 17 58 50 60 51 71 40 7 -7 13 -3 20
14 5 14 21 33 36 44 14 11 50 37 78 58 29 21 68 51 87 67 106 87 123 100 133
100 6 0 24 15 41 33 49 51 147 130 140 113 -4 -10 -1 -16 8 -16 22 0 29 12 16
27 -9 11 -6 17 13 31 13 9 44 35 69 58 25 22 58 52 74 65 16 13 53 47 82 74
29 28 101 95 160 150 158 147 480 482 605 630 19 22 43 49 54 61 22 24 88 102
120 142 11 14 29 34 40 46 11 12 31 37 45 56 24 35 62 83 103 130 12 14 33 41
47 60 13 19 32 44 42 54 10 11 18 23 18 27 0 4 6 14 13 21 7 7 24 29 37 48 27
38 48 65 68 85 6 8 12 18 12 22 0 5 8 18 18 29 9 10 31 40 47 66 17 27 33 48
38 48 4 0 7 7 7 15 0 9 6 12 16 8 13 -5 15 -2 9 15 -4 13 -2 22 4 22 6 0 11 7
11 15 0 8 5 15 10 15 6 0 10 7 10 15 0 8 5 15 10 15 6 0 10 4 10 10 0 5 16 32
35 59 19 26 35 53 35 60 0 6 5 11 10 11 6 0 10 7 10 16 0 12 6 15 26 10 24 -6
25 -5 18 29 -4 23 -2 35 5 35 6 0 11 7 11 15 0 8 3 15 8 15 4 0 13 13 20 30
10 21 20 29 35 27 14 -1 22 4 22 13 0 8 -6 14 -13 12 -15 -3 5 40 49 105 16
23 29 46 29 52 0 6 5 11 10 11 6 0 10 9 10 20 0 11 3 20 8 20 4 0 12 10 17 23
19 39 70 132 76 137 3 3 12 20 20 38 8 17 17 32 21 32 5 0 8 9 8 19 0 11 3 21
8 23 4 2 43 75 87 163 44 88 83 162 87 163 5 2 8 15 8 28 0 13 4 24 8 24 5 0
14 15 22 34 9 23 18 32 28 29 11 -5 13 -1 7 15 -5 16 -2 22 9 22 17 0 21 12 9
24 -4 3 -8 13 -9 20 -1 7 -21 40 -45 73 -44 61 -94 138 -159 249 -36 59 -108
160 -142 198 -10 11 -18 26 -18 33 0 7 -4 13 -8 13 -5 0 -17 19 -27 43 -57
134 -149 303 -212 391 -25 34 -164 156 -179 156 -3 0 -26 16 -50 36 -35 29
-44 43 -44 69 0 45 -19 94 -49 131 -14 18 -44 54 -66 82 -22 28 -51 56 -65 63
-16 8 -74 13 -161 14 l-136 2 -134 66 c-207 101 -337 150 -429 162 -30 4 -89
15 -130 25 -41 10 -113 26 -160 35 -95 18 -272 69 -310 90 -25 13 -70 24 -320
80 -102 23 -254 50 -420 76 -30 5 -98 13 -150 18 -52 5 -115 14 -140 19 -25 6
-76 13 -115 16 -38 4 -92 11 -120 16 -91 16 -248 30 -395 34 -80 3 -161 10
-180 17 -22 7 -120 13 -265 15 -126 1 -250 7 -275 12 -25 6 -101 23 -170 38
-120 26 -137 28 -410 28 -254 1 -289 -1 -322 -17 -49 -23 -176 -15 -226 15
-38 23 -103 106 -125 158 -25 62 -87 151 -120 171 -30 19 -43 20 -217 14 -171
-5 -294 -14 -458 -31 -97 -10 -96 -15 47 -170 99 -107 108 -118 89 -111 -12 4
-18 1 -18 -8 0 -8 5 -15 10 -15 20 0 10 -84 -15 -129 -14 -23 -25 -47 -25 -52
0 -4 -11 -19 -25 -33 -13 -13 -27 -37 -31 -53 -4 -16 -39 -61 -80 -102 -41
-41 -74 -78 -74 -82 0 -5 -13 -18 -30 -31 -16 -12 -30 -30 -30 -40 0 -10 -7
-18 -16 -18 -9 0 -38 -22 -64 -50 -26 -27 -50 -47 -53 -44 -3 3 -10 -4 -17
-15 -6 -12 -20 -21 -31 -21 -11 0 -22 -7 -25 -15 -4 -8 -16 -15 -28 -15 -21 0
-41 -15 -74 -55 -7 -8 -21 -15 -31 -15 -21 0 -93 -28 -101 -39 -9 -13 -159
-81 -178 -81 -10 0 -23 -5 -29 -11 -6 -6 -26 -14 -44 -19 -19 -4 -71 -22 -117
-39 -46 -17 -87 -30 -90 -29 -4 1 -23 -5 -42 -15 -19 -9 -62 -23 -95 -31 -33
-8 -85 -22 -115 -30 -30 -9 -68 -16 -83 -16 -16 0 -37 -5 -47 -10 -11 -6 -42
-15 -70 -20 l-51 -10 -43 46 c-27 28 -45 41 -48 33 -2 -7 -10 -9 -16 -5 -19
11 -14 26 8 26 11 0 20 6 20 13 -1 14 -90 61 -90 47 0 -6 -7 -10 -15 -10 -9 0
-15 9 -15 25 0 14 -4 25 -10 25 -5 0 -10 -4 -10 -10 0 -15 -107 -13 -113 3 -4
9 -6 9 -6 0 -1 -7 -12 -13 -25 -13 -16 0 -26 -7 -31 -22 -7 -22 -7 -22 -12 -3
-3 10 0 21 6 23 20 7 12 32 -14 44 -15 7 -24 17 -21 25 6 14 -6 16 -41 7 -14
-4 -27 -20 -35 -40 -7 -19 -15 -34 -18 -34 -3 0 -14 22 -25 49 -16 43 -21 47
-36 38 -14 -9 -22 -7 -38 7 -12 11 -21 14 -21 8 0 -7 -16 -12 -40 -12 -33 0
-40 3 -40 20 0 17 7 20 42 20 25 0 49 7 60 17 16 14 22 15 39 4 19 -11 20 -10
14 11 -14 44 -52 49 -68 8 -4 -10 -6 -8 -6 7 -1 16 -9 23 -33 29 l-33 7 35 12
c19 7 49 11 65 9 27 -3 27 -3 5 4 l-24 8 22 22 c25 25 28 54 8 75 -18 18 -23
151 -8 190 11 25 10 27 -13 27 -14 0 -25 5 -25 10 0 6 -6 10 -12 8 -7 -1 -27
5 -44 15 -17 9 -34 14 -37 11 -3 -3 -15 -3 -26 1 -24 7 -19 23 13 35 20 7 20
8 -6 15 -45 12 -34 30 15 26 10 -2 17 5 17 14 0 9 5 13 10 10 6 -4 8 -15 5
-26 -4 -10 -2 -19 3 -19 5 0 12 9 15 20 4 15 14 20 39 20 18 0 40 5 48 10 12
8 9 10 -12 10 -18 0 -28 5 -28 15 0 8 -6 24 -12 35 -11 17 -10 22 2 31 11 8 9
9 -12 5 -22 -5 -26 -3 -22 9 4 9 -2 19 -17 25 -23 10 -23 10 -1 6 14 -3 22 1
22 10 0 8 7 17 16 21 14 5 15 8 3 17 -8 6 -20 23 -26 39 -12 25 -11 27 12 27
14 0 24 -3 23 -7 -2 -13 14 -43 23 -43 5 0 9 7 9 15 0 8 -4 15 -10 15 -5 0
-10 6 -10 14 0 8 -13 19 -30 25 -20 6 -30 17 -30 30 0 10 -3 27 -7 36 -5 14
-2 16 15 10 16 -5 22 -2 22 9 0 9 -4 16 -10 16 -5 0 -10 7 -10 16 0 10 6 14
15 11 8 -4 17 -2 20 3 4 6 -1 10 -9 10 -31 0 -5 46 29 52 11 2 21 12 23 23 8
43 35 85 54 85 11 0 16 5 13 11 -4 6 2 13 14 16 24 6 28 23 6 23 -23 0 -18 27
8 34 l22 7 -25 11 c-25 11 -24 11 13 18 25 5 47 17 61 35 16 20 25 25 30 16
10 -15 36 4 36 26 0 13 3 13 16 2 14 -11 18 -11 28 1 6 9 23 14 39 12 22 -3
27 1 27 17 0 18 3 19 26 11 34 -13 34 -13 34 10 0 11 5 20 11 20 6 0 9 -7 5
-15 -3 -8 -1 -15 4 -15 6 0 10 5 10 11 0 6 9 8 21 4 18 -6 20 -4 14 17 -5 18
-4 19 4 8 9 -12 14 -13 31 -2 26 16 40 15 40 -3 0 -24 19 -17 26 10 7 30 11
30 36 8 19 -17 19 -16 12 12 l-7 30 23 -23 c17 -18 25 -21 36 -11 8 6 14 8 14
4 0 -4 6 -3 13 3 33 27 86 50 90 39 2 -8 14 -6 39 6 20 9 45 17 56 17 24 0 70
35 59 46 -4 4 -13 -1 -21 -11 -10 -13 -20 -16 -41 -11 -18 5 -35 2 -52 -9 -17
-12 -28 -13 -37 -6 -7 6 -16 8 -19 5 -3 -4 -9 7 -12 22 -11 56 -20 77 -34 82
-10 3 -12 -2 -7 -21 5 -21 3 -24 -14 -20 -15 4 -23 -2 -34 -27 l-13 -32 -5 26
c-3 15 -1 29 3 32 17 10 9 34 -11 34 -11 0 -20 7 -20 15 0 20 -6 19 -28 -3
-10 -10 -16 -24 -14 -30 2 -7 1 -20 -3 -30 -5 -14 -9 -12 -22 13 -16 29 -16
29 -24 7 -12 -31 -21 -28 -16 6 3 15 10 26 16 24 15 -3 14 3 -6 41 -11 21 -18
27 -20 17 -2 -8 -11 -35 -20 -59 l-16 -44 -13 29 -12 29 -2 -30 -1 -30 -15 28
c-15 28 -56 38 -70 16 -5 -9 1 -10 20 -5 20 5 26 3 26 -10 0 -10 -5 -14 -15
-10 -10 3 -15 -1 -15 -11 0 -14 -2 -14 -19 1 -21 19 -41 14 -41 -10 0 -8 -4
-14 -10 -14 -5 0 -10 5 -10 10 0 6 -6 10 -14 10 -8 0 -16 7 -20 15 -7 20 -36
8 -36 -16 0 -10 -4 -19 -10 -19 -5 0 -10 7 -10 15 0 8 -7 15 -15 15 -8 0 -15
4 -15 10 0 5 -9 14 -20 20 -16 9 -18 8 -14 -5 4 -8 1 -15 -5 -15 -6 0 -11 6
-11 14 0 19 -20 32 -29 19 -9 -14 -51 -11 -51 4 0 19 -30 16 -37 -4 -8 -20
-43 -52 -57 -53 -6 0 -3 6 6 13 8 6 23 26 33 44 l18 31 -29 25 c-18 16 -33 22
-39 16 -15 -15 -33 -10 -40 12 -4 12 -10 18 -14 13 -10 -15 -51 -35 -51 -26 0
5 9 17 21 28 26 24 43 54 30 54 -5 0 -17 -7 -25 -16 -15 -14 -17 -14 -22 3
-12 38 -22 48 -59 55 -51 11 -64 23 -71 69 -7 43 -54 117 -54 84 0 -15 -3 -16
-12 -7 -9 9 -9 15 0 24 19 19 15 40 -7 33 -26 -8 -37 12 -18 33 16 17 17 45 4
58 -13 13 -7 24 13 24 11 0 20 7 20 15 0 9 -9 15 -25 15 -22 0 -25 4 -25 40 0
29 -4 40 -15 40 -8 0 -15 7 -15 15 0 11 11 15 40 15 22 0 40 5 40 10 0 6 24
10 53 11 28 1 63 4 77 8 14 4 42 3 64 -2 27 -7 40 -7 45 1 4 7 25 14 46 17 51
6 86 51 55 70 -5 3 -10 14 -10 24 0 12 -7 18 -17 17 -10 0 -18 6 -19 14 0 8
-2 21 -2 28 -1 9 -15 12 -39 10 l-38 -3 -6 50 c-6 42 -4 53 13 68 11 9 33 17
49 17 15 0 31 5 35 11 5 8 8 8 14 0 7 -13 40 -4 40 10 0 5 7 9 16 9 8 0 22 7
30 15 9 8 26 15 39 15 15 0 25 7 28 21 3 12 10 18 17 14 8 -5 8 -10 0 -20 -12
-14 -8 -17 37 -42 27 -14 35 -4 29 33 -5 26 7 54 24 54 3 0 6 -10 6 -21 -1
-12 5 -24 12 -27 9 -3 13 3 12 19 -4 42 0 49 23 49 13 0 32 9 42 20 30 33 16
40 -125 67 -19 3 -40 13 -45 20 -6 8 -15 13 -20 12 -6 -1 -18 1 -28 6 -11 4
-28 3 -41 -4 -29 -16 -101 1 -115 27 -9 15 -11 14 -19 -8 l-10 -25 -12 27 c-7
15 -17 25 -21 22 -14 -8 -49 34 -43 51 4 9 3 15 -2 14 -27 -5 -34 3 -32 34 1
18 -1 38 -6 45 -4 6 2 19 14 29 11 10 20 23 20 31 0 9 7 11 19 7 12 -3 23 0
28 8 4 8 24 22 44 30 32 13 37 13 61 -5 22 -15 26 -26 26 -64 0 -67 8 -64 16
6 4 33 10 60 14 61 4 1 23 2 42 4 19 1 41 4 49 6 8 3 18 -10 25 -36 11 -37 13
-38 20 -17 4 13 5 26 2 29 -8 9 32 35 43 29 4 -3 16 3 26 14 14 15 21 17 31 9
9 -7 23 -8 46 -1 43 13 148 23 148 13 0 -4 35 -8 77 -10 47 -1 81 -7 85 -14 6
-9 10 -8 18 3 17 26 5 35 -49 33 -44 -1 -50 1 -40 13 9 11 7 14 -12 14 -17 0
-20 3 -11 9 9 5 2 10 -24 14 -21 4 -43 3 -48 -2 -6 -5 -18 -8 -26 -8 -8 -1
-23 -4 -33 -8 -13 -5 -18 -4 -17 6 4 27 0 40 -10 34 -6 -4 -8 -11 -5 -16 6 -8
-1 -10 -47 -13 -9 -1 -20 -4 -24 -8 -4 -5 -16 -8 -26 -8 -19 0 -25 25 -8 35 6
3 10 12 10 18 -1 8 -5 6 -13 -3 -16 -20 -57 -45 -84 -52 -20 -5 -21 -3 -13 12
15 27 12 36 -10 36 -12 0 -20 -7 -20 -16 0 -25 -38 -60 -65 -60 -33 0 -77 18
-98 41 -12 13 -25 17 -42 13 -21 -5 -25 -2 -25 14 0 12 -5 24 -11 27 -5 4 -9
17 -7 28 1 12 -1 27 -5 34 -7 11 17 43 33 43 5 0 10 -12 12 -27 2 -16 7 -26
11 -23 5 3 15 -8 22 -25 12 -27 13 -27 14 -7 1 12 6 22 11 22 6 0 10 10 10 21
0 18 -2 19 -15 9 -12 -10 -15 -10 -16 1 -3 34 -7 55 -14 74 -6 17 -5 17 5 5
10 -13 11 -13 7 0 -2 8 -8 15 -13 16 -19 2 -62 23 -69 34 -6 10 -67 42 -85 45
-3 0 -18 12 -33 27 -15 14 -35 24 -45 22 -23 -6 -47 43 -30 63 8 10 7 12 -4 8
-22 -9 -10 46 14 63 10 7 18 19 18 25 0 7 -4 6 -10 -3 -6 -10 -10 -11 -10 -2
0 6 9 21 20 32 11 11 20 26 20 33 1 39 47 130 62 121 7 -5 9 1 4 20 -5 22 -3
26 14 26 12 0 19 4 16 9 -3 5 5 16 18 25 18 12 26 12 29 3 8 -18 8 28 1 47 -3
9 -14 16 -24 16 -11 0 -19 10 -22 25 -3 14 -1 25 3 25 16 0 9 30 -11 47 -11
10 -20 23 -20 29 0 6 -7 25 -15 40 -9 18 -15 57 -15 106 0 60 -3 79 -16 86
-11 6 -18 27 -20 66 -3 31 -9 68 -15 83 -7 18 -6 28 1 33 7 4 2 13 -14 24 -14
9 -35 39 -47 66 -12 27 -25 47 -30 44 -5 -3 -14 6 -21 20 -9 21 -8 29 5 44 21
23 22 42 2 42 -11 0 -15 11 -15 40 0 36 3 40 24 40 23 0 24 4 31 80 5 62 11
80 22 80 13 0 15 10 11 49 -3 27 0 57 6 68 9 16 11 15 18 -12 5 -22 6 -15 5
26 -2 51 0 56 18 52 18 -4 18 -3 3 7 -20 12 -24 40 -7 40 8 0 10 18 7 55 -3
31 -1 58 4 61 4 3 8 16 8 30 0 14 3 23 8 21 4 -3 5 14 4 38 -2 24 1 52 7 64 9
15 9 27 1 41 -7 14 -7 20 0 20 5 0 10 7 10 16 0 8 4 13 8 10 5 -3 6 8 4 25 -3
23 0 29 13 29 15 0 17 7 12 40 -5 37 6 56 16 28 10 -28 18 3 20 73 2 68 4 76
31 100 83 75 221 109 265 64 27 -28 77 -124 86 -165 4 -19 16 -51 26 -72 10
-20 23 -53 28 -75 23 -94 90 -261 169 -418 101 -201 137 -254 172 -255 14 0
39 -9 57 -20 92 -56 226 -81 593 -110 145 -12 602 -12 735 0 433 38 566 82
612 206 19 51 83 303 83 330 0 11 11 42 24 70 15 30 27 75 30 119 12 137 38
291 64 375 24 74 30 85 55 91 15 4 27 6 27 4 0 -2 -16 -19 -35 -38 -29 -28
-35 -41 -35 -76 0 -23 4 -50 9 -59 10 -19 23 -141 22 -217 0 -98 -20 -465 -25
-473 -3 -5 -10 -42 -16 -83 -6 -41 -18 -92 -26 -115 -9 -23 -14 -47 -13 -55 1
-8 -3 -27 -9 -42 -7 -16 -12 -40 -12 -54 0 -23 2 -24 17 -12 15 13 16 11 10
-26 -4 -22 -7 -45 -7 -51 0 -7 -9 -14 -19 -17 -22 -5 -61 -63 -61 -89 0 -10 7
-18 15 -18 8 0 15 -5 15 -10 0 -16 139 120 166 163 26 39 44 41 44 4 0 -22
-30 -78 -56 -104 -19 -20 -18 -39 2 -22 13 10 17 10 24 -1 12 -20 3 -30 -26
-30 -15 0 -24 -5 -22 -12 7 -19 24 -20 42 -2 9 9 23 14 31 11 9 -4 15 2 17 16
2 12 10 21 17 19 9 -2 12 4 8 19 -4 15 0 23 14 26 20 6 26 37 9 48 -5 3 -10
-2 -10 -11 0 -14 -3 -15 -12 -6 -8 8 -8 15 1 25 6 8 9 21 6 29 -4 9 1 18 9 21
9 4 16 16 16 28 0 13 7 31 17 41 21 23 11 33 -17 18 -28 -15 -38 -5 -18 17 22
26 26 43 38 192 8 102 8 136 -1 142 -6 3 -9 12 -5 18 4 6 0 24 -9 40 -21 41
-20 73 3 69 27 -5 20 120 -12 175 -12 23 -31 71 -41 106 -17 58 -18 64 -3 75
9 7 21 31 28 54 8 32 21 50 50 70 29 20 39 34 40 54 0 15 5 30 11 34 7 4 9 21
5 44 -4 28 -2 39 8 43 21 8 63 150 70 237 6 63 15 90 58 175 54 105 65 155 73
334 2 40 8 112 14 160 6 47 9 120 8 161 -2 69 0 77 25 103 18 20 28 42 31 75
2 26 8 58 12 71 5 16 5 22 -2 18 -11 -7 -23 23 -23 61 0 25 15 44 43 55 9 3
17 12 18 19 0 7 3 22 5 33 2 11 9 58 14 105 6 47 15 104 20 128 15 63 12 266
-4 357 -20 106 -49 324 -47 352 0 12 -4 25 -9 28 -6 3 -10 19 -10 35 0 36 -36
194 -55 240 -8 19 -20 58 -26 85 -7 28 -16 56 -22 63 -5 6 -6 12 -3 12 4 0 2
9 -4 20 -6 11 -17 20 -26 20 -10 0 -13 7 -8 24 7 29 -28 114 -96 232 -27 48
-50 88 -50 90 0 7 -43 94 -64 129 -14 22 -35 58 -47 80 -12 22 -25 42 -28 45
-11 8 -121 176 -121 184 0 10 -95 129 -158 196 -47 53 -160 138 -227 173 -17
8 -71 56 -120 106 -94 96 -212 182 -319 231 -35 17 -86 47 -113 68 -91 71
-254 162 -353 197 -36 13 -90 32 -120 43 -30 11 -95 32 -145 47 -49 15 -103
33 -120 40 -104 48 -163 61 -340 74 -114 8 -160 7 -245 -6 -58 -8 -130 -17
-160 -20 -67 -6 -227 15 -244 33 -16 15 -100 21 -196 12z m631 -2648 c5 0 9 9
9 19 0 25 18 37 26 18 4 -11 29 -17 85 -22 43 -4 79 -11 79 -16 0 -11 70 -12
86 -1 7 4 14 18 16 32 5 23 5 23 13 -8 4 -19 14 -36 22 -39 18 -7 31 6 16 15
-7 4 -9 13 -4 21 6 9 13 0 24 -27 20 -50 33 -59 56 -38 10 9 25 14 35 10 9 -3
29 -1 45 6 40 16 65 6 81 -34 12 -32 14 -33 46 -23 25 8 40 7 58 -2 13 -8 29
-11 34 -7 5 3 16 -1 23 -10 19 -23 186 -9 212 18 15 15 16 22 7 33 -13 16 -10
70 5 70 6 0 11 -10 13 -23 3 -16 8 -22 18 -18 21 8 55 -29 97 -105 21 -39 46
-70 61 -77 15 -6 26 -16 26 -22 0 -5 5 -10 12 -10 9 0 9 3 0 12 -15 15 -16 48
-2 48 14 0 12 28 -2 33 -8 2 -9 8 -4 13 5 5 11 4 13 -3 3 -7 17 -13 31 -14 22
0 24 -2 8 -8 -17 -6 -15 -10 14 -34 31 -26 57 -30 32 -5 -20 20 -13 28 13 16
14 -6 25 -14 25 -18 0 -4 11 -23 25 -43 25 -38 57 -131 48 -141 -3 -3 -2 -13
2 -23 7 -16 9 -15 15 7 4 14 3 35 -1 47 -5 13 -5 32 -1 44 8 20 8 20 20 -5 12
-26 42 -36 42 -14 0 28 28 -30 35 -72 11 -69 22 -80 30 -30 l7 43 16 -32 c8
-18 25 -40 38 -50 13 -11 24 -26 24 -35 0 -9 5 -16 11 -16 5 0 9 10 7 23 -2
14 2 22 12 22 9 0 15 -10 16 -27 1 -27 47 -98 63 -98 5 0 12 8 15 17 6 15 8
15 16 3 6 -9 21 -14 41 -12 26 3 31 1 26 -12 -4 -10 -1 -19 8 -22 8 -4 15 -13
15 -20 0 -8 12 -20 28 -27 31 -14 51 -36 52 -57 0 -8 9 -21 19 -27 11 -7 29
-32 39 -57 13 -27 29 -47 43 -51 46 -15 100 -70 130 -131 32 -67 37 -90 13
-59 -16 20 -16 19 -11 -5 3 -14 11 -45 17 -70 6 -24 13 -76 15 -115 3 -38 8
-106 12 -150 4 -44 8 -102 7 -130 0 -62 -23 -388 -30 -434 l-5 -33 -67 7 c-37
4 -77 13 -88 20 -12 8 -31 11 -42 8 -14 -3 -22 1 -26 15 -5 14 -15 19 -36 18
-17 -1 -30 -7 -30 -14 0 -8 -9 -10 -27 -6 -32 8 -64 32 -62 48 3 24 -1 37 -10
31 -5 -3 -13 0 -17 6 -5 9 -11 7 -21 -6 -7 -11 -13 -13 -13 -7 0 7 -6 12 -13
12 -10 0 -14 16 -13 58 1 50 -2 57 -19 57 -14 0 -19 -6 -17 -17 2 -10 -1 -18
-5 -18 -4 0 -19 -3 -32 -7 -20 -5 -23 -3 -18 10 8 22 -11 33 -62 36 -41 2 -71
18 -71 39 0 5 -9 12 -21 15 -12 3 -18 10 -14 16 3 6 10 9 15 6 5 -3 12 0 15 5
5 8 13 6 26 -6 11 -9 21 -15 24 -13 7 8 -38 69 -51 69 -6 0 -24 12 -39 26 -20
19 -30 23 -39 14 -8 -8 -4 -16 14 -30 14 -11 31 -20 38 -20 14 0 17 -30 2 -30
-6 0 -22 7 -35 16 -13 9 -29 13 -35 9 -5 -3 -10 -1 -10 5 0 13 -61 51 -72 44
-4 -3 -15 2 -24 10 -20 21 -33 20 -41 -1 -10 -28 -25 -33 -52 -19 -14 7 -62
18 -106 25 -44 7 -93 14 -108 16 -15 3 -36 0 -46 -7 -19 -12 -56 -4 -47 10 2
4 -4 13 -15 20 -13 9 -19 9 -19 1 0 -6 -6 -9 -13 -6 -7 3 -19 -3 -25 -13 -9
-14 -19 -17 -52 -13 -53 7 -52 -10 3 -33 35 -15 38 -18 20 -22 -12 -2 -31 2
-42 7 -26 14 -58 14 -63 0 -5 -16 -68 -1 -68 17 0 14 -46 31 -57 20 -3 -3 0
-12 7 -21 7 -9 11 -18 8 -20 -8 -8 -98 7 -98 16 0 5 -7 9 -15 9 -8 0 -15 -4
-15 -10 0 -5 -4 -10 -10 -10 -5 0 -10 7 -10 15 0 20 -26 19 -34 0 -6 -17 -41
-13 -84 8 -19 9 -34 8 -72 -6 -56 -20 -91 -22 -108 -5 -9 9 -12 9 -12 1 0 -7
-10 -11 -22 -11 -45 3 -79 -2 -74 -11 3 -4 -14 -14 -37 -21 -55 -17 -68 -29
-40 -36 21 -6 21 -7 6 -22 -12 -12 -18 -13 -21 -4 -2 6 -20 12 -39 12 -20 0
-33 -3 -29 -7 4 -4 13 -8 19 -8 19 0 18 -20 -1 -21 -35 -1 -83 -26 -78 -40 3
-8 1 -14 -4 -14 -5 0 -6 -8 -3 -17 5 -13 2 -15 -11 -10 -9 4 -32 -1 -49 -10
-25 -13 -28 -18 -14 -21 9 -2 17 -8 17 -13 0 -11 -42 -7 -51 4 -3 5 -17 5 -31
2 -28 -7 -61 -76 -39 -83 6 -2 11 -10 11 -18 0 -23 16 -16 28 11 16 34 15 40
-3 25 -19 -15 -19 -1 -1 23 15 19 46 14 46 -8 0 -8 -10 -29 -22 -49 -19 -28
-27 -33 -48 -29 -14 3 -28 11 -32 17 -4 6 -10 7 -14 3 -4 -4 1 -14 12 -22 18
-13 16 -14 -23 -15 -49 0 -60 12 -39 42 15 21 16 21 16 3 1 -18 1 -19 11 -3 7
12 6 24 -1 39 -17 30 -4 36 19 8 23 -27 27 -14 9 26 -11 24 -38 35 -38 15 0
-18 -18 -10 -23 10 -3 11 -10 20 -16 20 -7 0 -9 -10 -5 -25 15 -59 -30 -12
-80 84 -10 20 -25 44 -34 54 -8 9 -12 20 -8 24 4 4 12 1 17 -7 9 -12 9 -11 4
5 -4 11 -10 30 -13 43 -2 13 -11 26 -18 29 -8 3 -14 11 -14 19 0 17 -12 18
-28 2 -9 -9 -12 -9 -12 3 0 18 -73 62 -85 51 -4 -4 -4 3 -1 15 7 21 5 22 -23
17 -29 -6 -31 -5 -31 25 0 17 -4 31 -9 31 -15 0 -41 -30 -41 -46 0 -8 -5 -14
-11 -14 -6 0 -8 9 -4 20 3 11 2 20 -3 20 -5 0 -13 10 -16 23 -7 21 -7 21 -16
2 -6 -14 -9 -15 -10 -5 0 10 -7 7 -21 -10 l-20 -25 6 43 c5 29 3 42 -5 42 -7
0 -14 -9 -17 -20 -6 -23 -23 -27 -23 -5 0 14 -5 17 -40 19 -8 1 -17 12 -21 26
-4 16 -7 19 -8 8 -1 -10 -3 -18 -5 -18 -2 0 -12 -3 -22 -7 -14 -5 -16 -2 -12
15 4 12 2 22 -3 22 -5 0 -9 -6 -9 -14 0 -9 -7 -12 -20 -9 -11 3 -27 0 -35 -7
-10 -9 -15 -9 -15 -1 0 6 5 11 10 11 6 0 10 5 10 10 0 6 -9 10 -20 10 -14 0
-20 7 -21 23 -1 21 -1 21 -9 -3 -4 -14 -8 -18 -9 -9 -1 9 -12 21 -26 27 -13 6
-27 23 -31 37 -3 14 -10 25 -15 25 -5 0 -9 7 -9 15 0 8 -7 15 -15 15 -8 0 -26
5 -40 12 -22 10 -25 17 -25 60 0 36 4 48 15 48 10 0 15 11 15 35 0 31 3 35 25
35 33 0 32 12 -5 48 l-29 30 16 41 c9 22 22 41 30 41 7 0 13 7 13 15 0 8 4 15
9 15 5 0 14 -7 21 -15 7 -8 21 -15 30 -15 10 0 20 -4 22 -10 2 -5 3 9 3 33 1
23 5 64 9 92 l8 49 19 -24 19 -25 0 23 c0 12 5 22 10 22 6 0 10 6 10 13 0 26
25 67 42 67 9 0 20 5 23 10 4 6 11 8 16 5 5 -4 6 7 3 25 -4 19 -2 30 5 30 6 0
11 6 11 14 0 8 7 16 15 20 8 3 14 15 12 28 -1 18 4 24 25 26 20 2 30 12 41 40
11 26 12 39 4 44 -15 9 20 48 44 48 32 0 49 12 49 35 0 26 58 75 89 75 28 0
26 18 -4 42 -20 16 -25 28 -25 64 0 48 12 67 48 78 12 4 30 18 41 32 15 20 28
24 69 24 30 0 52 -5 54 -12 3 -9 12 -9 36 1 17 7 35 10 40 7 5 -3 7 6 4 19 -5
29 11 33 30 7 18 -25 48 -36 48 -17 0 10 11 15 34 15 19 0 55 9 80 19 l45 20
13 -30 c14 -31 28 -38 28 -15 0 26 20 28 29 4 l10 -23 0 23 c1 21 5 22 80 22
75 0 80 -1 84 -22 3 -15 5 -8 7 17 l2 40 10 -37 c6 -21 14 -38 19 -38z m-284
-1992 c-8 -66 -15 -109 -28 -173 -25 -128 -33 -155 -45 -155 -19 0 -77 78 -68
92 4 6 9 26 10 42 4 61 32 137 58 157 14 11 26 26 26 34 0 7 7 15 15 19 8 3
15 12 15 21 0 8 5 15 11 15 8 0 10 -16 6 -52z m1683 -40 c48 1 346 -43 405
-59 127 -35 169 -65 209 -154 29 -64 35 -375 11 -533 -14 -88 -29 -148 -70
-283 -53 -171 -119 -237 -276 -272 -155 -35 -243 -41 -659 -41 -384 -1 -427 1
-570 22 -221 33 -305 55 -363 95 -15 10 -40 22 -55 26 -15 4 -29 16 -31 27 -1
10 -13 33 -25 49 -24 32 -76 173 -101 271 -49 197 -67 322 -71 487 -2 93 -6
173 -9 177 -7 12 6 41 15 35 9 -5 50 33 50 46 0 12 104 50 187 68 100 22 224
28 207 11 -7 -7 -23 -13 -36 -13 -18 -2 -24 -7 -20 -20 2 -9 -1 -23 -7 -31 -7
-8 -11 -20 -10 -28 1 -7 -1 -21 -6 -32 -5 -12 -2 -28 8 -45 13 -22 14 -36 6
-72 -5 -24 -15 -54 -21 -66 -14 -28 -9 -34 31 -35 17 -1 31 -5 31 -10 0 -17 3
-23 19 -35 14 -11 14 -13 -6 -19 -31 -9 -35 -29 -10 -60 23 -30 29 -46 28 -81
0 -13 8 -27 19 -33 11 -6 20 -16 20 -21 0 -14 51 -55 63 -51 5 1 15 -2 23 -9
7 -6 18 -8 24 -4 5 3 10 2 10 -4 0 -12 81 -61 101 -61 8 0 31 -9 52 -20 21
-12 47 -18 57 -15 10 3 20 0 23 -7 2 -8 18 -14 33 -15 16 0 21 1 12 4 -10 2
-18 9 -18 14 0 12 23 12 36 0 5 -5 18 -11 29 -13 16 -3 26 9 50 57 28 55 29
61 13 67 -10 4 -18 12 -18 18 0 20 35 10 57 -17 l23 -26 -6 34 c-4 19 -12 37
-17 40 -5 4 -7 14 -4 23 5 13 15 16 44 11 21 -3 32 -2 26 1 -26 12 -11 30 50
60 58 29 64 35 100 105 39 78 50 142 34 207 -8 28 -6 32 11 32 30 0 200 -108
230 -146 15 -19 32 -34 37 -34 6 -1 25 -13 43 -29 34 -29 78 -32 88 -6 7 17
-54 135 -69 134 -9 0 -8 -2 1 -6 6 -2 9 -9 6 -14 -3 -6 -21 1 -39 15 -19 15
-38 26 -43 26 -6 0 -12 7 -16 15 -6 16 -161 93 -207 102 -16 3 -32 10 -35 14
-3 5 -16 9 -28 9 -13 0 -29 7 -36 15 -7 9 -21 13 -31 10 -14 -5 -19 -1 -19 13
0 22 52 42 58 23 2 -7 9 -7 22 1 17 11 66 6 185 -19 17 -3 52 -29 83 -59 29
-30 57 -54 62 -54 5 0 11 -8 14 -18 3 -9 19 -23 36 -30 16 -8 30 -19 30 -26 0
-7 19 -25 41 -39 l41 -27 -4 30 c-4 24 -1 30 14 30 10 0 18 7 18 16 0 20 -25
45 -35 36 -5 -4 -5 -2 -1 5 13 24 -34 74 -68 72 -5 0 -14 10 -20 23 -6 13 -16
23 -21 23 -28 2 -53 18 -51 33 1 13 -6 16 -31 14 -18 -1 -33 2 -33 7 0 11 -33
22 -80 27 -152 17 -157 23 -15 17 83 -3 157 -5 165 -5z m1006 -110 c-1 -82 -6
-123 -18 -148 -9 -19 -19 -52 -23 -72 -3 -23 -12 -38 -20 -38 -7 0 -22 -3 -32
-7 -17 -7 -17 -6 0 11 9 9 17 27 17 40 0 12 6 28 13 35 10 11 7 12 -16 7 -20
-5 -29 -2 -34 10 -6 17 13 35 37 33 31 -3 37 2 38 29 6 191 12 230 31 218 4
-3 7 -56 7 -118z m-5617 0 c-48 -131 -47 -389 2 -638 45 -229 111 -364 199
-407 65 -32 225 -70 370 -87 165 -20 326 -37 336 -35 35 6 144 -3 144 -12 0
-19 -466 12 -624 41 -162 30 -168 32 -225 57 -49 21 -138 90 -134 103 1 3 -9
25 -22 50 -29 55 -71 208 -85 310 -6 41 -15 89 -20 105 -12 35 -16 313 -6 365
4 19 12 59 17 88 9 42 48 112 64 112 2 0 -5 -24 -16 -52z m2157 -6495 c-6 -35
-5 -37 9 -19 8 11 15 23 15 28 0 4 5 8 10 8 6 0 10 -17 11 -37 0 -21 3 -33 5
-26 4 8 17 10 37 6 35 -6 61 -23 37 -23 -8 0 -32 -5 -53 -11 -32 -8 -36 -13
-26 -25 6 -8 20 -14 30 -14 11 0 19 -4 19 -10 0 -5 -9 -10 -20 -10 -32 0 -23
-27 13 -35 17 -4 34 -7 38 -7 3 0 10 -7 16 -17 10 -16 7 -18 -38 -13 -29 3
-49 0 -49 -5 0 -6 15 -9 34 -7 26 2 36 -2 38 -14 6 -30 -49 -48 -147 -51 -120
-3 -185 6 -178 25 3 8 -1 14 -9 14 -20 0 -63 38 -53 48 4 4 10 1 12 -5 5 -15
33 -18 33 -4 0 5 -6 12 -12 15 -10 5 -10 7 0 12 15 7 16 24 1 24 -21 0 -65 61
-52 74 3 3 18 6 33 6 38 0 44 11 18 32 -19 15 -20 20 -9 27 8 5 23 8 33 6 10
-2 18 0 18 6 0 5 18 9 40 9 26 0 40 -5 40 -13 0 -8 14 -12 41 -12 36 0 41 2
46 27 9 43 26 34 19 -9z m-4826 -1610 c-1 -62 -4 -70 -63 -151 -41 -56 -60
-64 -77 -33 -21 40 -12 105 21 152 38 54 78 88 102 89 14 0 17 -9 17 -57z m34
-180 c3 -21 10 -64 15 -96 17 -103 46 -112 118 -36 93 98 208 131 259 72 14
-16 24 -41 24 -59 0 -25 -7 -34 -39 -52 -22 -12 -57 -29 -80 -37 -54 -19 -150
-84 -189 -130 -25 -27 -32 -45 -32 -76 0 -50 25 -140 52 -186 l21 -34 26 23
c14 12 51 47 81 78 65 65 133 100 210 107 53 5 57 4 100 -35 57 -52 50 -66
-51 -102 -125 -46 -143 -55 -204 -112 -43 -39 -70 -76 -95 -127 l-34 -72 18
-87 c18 -91 54 -182 71 -182 5 0 32 34 59 76 74 116 147 158 234 134 49 -13
106 -50 110 -73 6 -31 -62 -100 -119 -121 -38 -13 -73 -37 -122 -84 -78 -76
-102 -118 -98 -176 2 -39 25 -133 40 -166 10 -22 2 -50 -15 -50 -9 0 -14 -11
-14 -30 0 -54 -26 -33 -56 45 -16 41 -34 75 -41 75 -18 0 -88 -148 -108 -230
-17 -67 -19 -72 -32 -54 -22 29 -8 165 29 282 53 166 55 198 23 289 -41 117
-73 175 -93 171 -37 -7 -75 -105 -112 -293 -30 -147 -101 -353 -137 -396 -7
-8 -13 -22 -13 -30 0 -32 -50 -53 -66 -28 -5 9 48 146 142 367 8 18 14 42 14
53 0 11 7 36 15 56 8 19 22 83 31 142 17 115 27 155 72 302 26 81 29 103 21
142 -11 59 -23 83 -50 98 -34 17 -36 11 -64 -154 -6 -39 -101 -253 -137 -309
-16 -26 -49 -89 -72 -140 -64 -143 -98 -196 -188 -294 -134 -146 -183 -187
-221 -186 -33 1 -67 31 -67 60 0 9 70 86 155 172 139 139 225 237 225 255 0 4
8 19 19 33 10 15 24 44 30 65 7 20 17 37 22 37 5 0 9 7 9 15 0 19 99 209 111
213 5 2 9 10 9 19 0 8 8 27 19 41 46 66 76 150 85 237 2 17 9 54 16 83 14 62
11 86 -26 245 -25 106 -26 122 -14 155 17 47 72 131 86 131 6 1 14 -16 18 -36z
m778 -2493 c3 -19 14 -71 22 -115 24 -122 47 -228 51 -235 5 -8 19 -219 20
-290 0 -49 -16 -61 -49 -37 -14 10 -21 37 -30 108 l-12 94 -69 7 c-91 9 -136
-1 -151 -32 -20 -41 -44 -134 -44 -168 0 -26 -4 -32 -21 -32 -21 0 -22 3 -15
78 9 111 31 214 66 312 17 47 35 99 39 115 9 32 77 210 87 226 3 6 27 9 52 7
44 -3 47 -5 54 -38z m-419 -6 c17 -4 29 -15 33 -30 3 -13 10 -24 15 -24 5 0 9
-41 9 -90 0 -76 -4 -98 -24 -138 -14 -26 -41 -58 -62 -72 -46 -31 -90 -98 -99
-152 -9 -49 11 -128 32 -128 10 0 14 -7 10 -19 -3 -13 2 -21 16 -25 15 -4 17
-2 8 7 -13 13 -15 31 -2 23 5 -3 28 1 51 9 58 20 62 19 58 -14 -3 -28 -54 -81
-78 -81 -6 0 -31 11 -55 25 -47 28 -52 40 -62 165 -6 79 6 123 57 203 96 152
95 149 95 212 l0 60 -62 3 c-60 3 -63 4 -63 28 0 19 8 29 33 39 17 8 39 12 47
10 8 -2 27 -7 43 -11z m2134 -804 c86 -23 206 -65 242 -85 14 -8 37 -19 51
-25 14 -5 54 -27 90 -48 55 -32 65 -42 68 -69 3 -27 -6 -38 -76 -99 -44 -38
-92 -80 -108 -94 -16 -14 -77 -76 -136 -137 -103 -108 -109 -112 -191 -142
-87 -32 -243 -69 -377 -90 -41 -7 -124 -21 -185 -31 -265 -48 -295 -46 -295
14 0 39 13 56 135 184 89 94 164 153 269 214 66 38 85 54 86 69 0 20 -48 49
-107 63 -148 36 -183 83 -119 154 58 63 183 106 376 126 171 19 194 18 277 -4z"/>
<path d="M9796 13088 c19 -160 96 -446 125 -464 6 -3 7 4 4 18 -3 12 -12 68
-20 123 -8 55 -30 148 -48 205 -19 58 -38 120 -42 138 -11 53 -26 37 -19 -20z"/>
<path d="M4792 2558 c-6 -8 -23 -54 -37 -103 -15 -50 -31 -103 -36 -120 -5
-16 -9 -33 -9 -37 0 -14 148 -9 156 4 11 17 7 60 -11 138 -8 36 -16 78 -17 95
-3 32 -28 45 -46 23z"/>
<path d="M12516 13048 c-9 -12 -16 -32 -16 -45 0 -12 -5 -25 -11 -29 -8 -5 -8
-9 1 -14 14 -9 24 -240 9 -240 -5 0 -9 18 -9 41 0 24 -4 38 -10 34 -5 -3 -10
-19 -10 -35 0 -16 5 -32 10 -35 6 -3 10 -24 10 -46 0 -21 -4 -39 -10 -39 -5 0
-10 -14 -10 -31 0 -16 4 -28 9 -24 14 8 19 -27 7 -47 -8 -13 -7 -24 1 -37 10
-15 10 -21 0 -24 -9 -4 -9 -7 1 -18 6 -7 12 -19 12 -27 0 -8 8 -21 18 -29 9
-8 11 -12 5 -8 -8 3 -13 0 -13 -8 0 -8 7 -18 16 -21 24 -9 27 -8 21 14 -3 11
-1 23 4 26 17 10 9 45 -17 79 l-25 34 21 11 c16 9 20 18 16 35 -3 13 -2 27 4
30 12 8 13 79 0 165 -5 36 -10 120 -12 187 -2 68 -4 123 -5 123 -1 0 -9 -10
-17 -22z"/>
<path d="M9606 11519 c-33 -26 -22 -45 17 -30 17 7 27 7 27 1 0 -6 7 -10 15
-10 8 0 15 6 15 13 0 9 2 9 9 -1 4 -7 36 -15 72 -18 47 -4 68 -11 79 -25 13
-17 18 -18 34 -6 18 13 18 14 0 42 -26 40 -71 55 -162 55 -66 0 -84 -4 -106
-21z"/>
<path d="M9270 11171 c-8 -3 -17 -13 -18 -21 -2 -8 -6 -24 -9 -35 -15 -57 -23
-179 -14 -188 6 -6 11 -22 11 -36 1 -35 20 -56 52 -59 15 -1 31 -3 36 -4 19
-7 71 52 83 93 7 24 16 49 21 56 5 6 5 24 1 40 -4 15 -6 34 -5 41 2 6 -2 12
-7 12 -6 0 -17 13 -25 29 -17 32 -103 82 -126 72z"/>
<path d="M9995 10430 c2 -14 5 -30 5 -36 0 -15 40 -31 70 -29 79 8 199 9 228
2 25 -7 33 -5 38 8 10 25 -11 39 -64 42 -55 3 -121 12 -142 20 -27 10 -45 9
-62 -6 -14 -11 -21 -11 -32 -2 -11 9 -16 9 -22 0 -5 -9 -10 -7 -16 7 -7 15 -7
14 -3 -6z"/>
</g>
</svg>
